<svg xmlns="http://www.w3.org/2000/svg" width="17.508" height="16.013" viewBox="0 0 17.508 16.013">
  <path id="car-alt_1_" data-name="car-alt (1)" d="M17.508,6.485a1.094,1.094,0,0,0-1.094-1.094s-.426,0-.456.006a21.673,21.673,0,0,0-1.869-2.888,2.833,2.833,0,0,0-1.443-.99c-1.285-.624-6.5-.624-7.784,0a2.833,2.833,0,0,0-1.443.99A21.673,21.673,0,0,0,1.55,5.4c-.03-.006-.456-.006-.456-.006A1.094,1.094,0,0,0,0,6.485v4.742a2.918,2.918,0,0,0,1.459,2.526v1.121a2.188,2.188,0,1,0,4.377,0v-.729h5.836v.729a2.188,2.188,0,1,0,4.377,0V13.753a2.918,2.918,0,0,0,1.459-2.526ZM4.577,3.4a1.386,1.386,0,0,1,.705-.481c1.108-.548,5.836-.548,6.943,0a1.386,1.386,0,0,1,.705.481,20.877,20.877,0,0,1,2.714,4.734,47.727,47.727,0,0,0-13.782,0A20.877,20.877,0,0,1,4.577,3.4Zm-.2,11.478a.729.729,0,1,1-1.459,0v-.729H4.377Zm10.213,0a.729.729,0,1,1-1.459,0v-.729H14.59Zm0-2.188H2.918a1.459,1.459,0,0,1-1.459-1.459V9.663a55.334,55.334,0,0,1,7.295-.625,55.335,55.335,0,0,1,7.295.625v1.563A1.459,1.459,0,0,1,14.59,12.686ZM4.377,11.227a.729.729,0,1,1-.729-.729A.729.729,0,0,1,4.377,11.227Zm10.213,0a.729.729,0,1,1-.729-.729A.729.729,0,0,1,14.59,11.227Z" transform="translate(0 -1.05)" fill="#c10037"/>
</svg>
